<svg width="241" height="262" viewBox="0 0 241 262" fill="none" xmlns="http://www.w3.org/2000/svg">
<path d="M102 27.66C101.88 30.54 99.66 32.94 96.24 33.12C94.74 33.18 93.06 33.24 91.44 33.24C89.4 33.24 87.42 33.18 85.68 33.12C81.96 33 80.22 30.78 80.1 27.72C80.04 25.02 79.98 21.6 79.98 18.06C79.98 14.52 80.04 10.92 80.1 7.97999C80.16 5.45999 81.66 2.99999 85.74 2.75999C87.3 2.63999 89.1 2.63999 90.96 2.63999C92.76 2.63999 94.62 2.63999 96.24 2.75999C99.84 2.93999 101.88 5.21999 102 7.91999C102.12 10.74 102.18 14.34 102.18 17.88C102.18 21.42 102.12 24.96 102 27.66ZM105.3 46.62C105.3 48.36 103.74 49.74 102.12 49.74C101.28 49.74 100.38 49.32 99.84 48.3C98.28 45.54 95.82 43.32 94.02 42C93.24 41.4 92.94 40.74 92.94 40.14C92.94 38.82 94.2 37.68 95.76 37.68C98.1 37.68 105.3 43.68 105.3 46.62ZM70.14 31.56V31.62C70.14 33.18 68.76 33.96 67.38 33.96C66 33.96 64.62 33.18 64.62 31.62V31.56L64.86 19.2C62.52 22.5 59.94 25.62 57.3 27.96C56.7 28.5 56.04 28.74 55.44 28.74C53.94 28.74 52.68 27.36 52.68 25.98C52.68 25.26 52.98 24.54 53.82 23.94C57.06 21.6 61.5 17.16 64.68 12.48L57.54 12.6H57.48C55.8 12.6 54.9 11.4 54.9 10.14C54.9 8.93999 55.8 7.67999 57.54 7.67999H64.74L64.62 2.57999V2.51999C64.62 0.83999 66 -9.53674e-06 67.38 -9.53674e-06C68.76 -9.53674e-06 70.14 0.83999 70.14 2.45999C70.14 2.51999 70.14 2.51999 70.14 2.57999C70.14 2.57999 70.02 4.67999 69.96 7.67999H76.02C77.58 7.67999 78.36 8.87999 78.36 10.08C78.36 11.34 77.52 12.6 76.08 12.6H76.02L69.9 12.48C69.9 13.56 69.84 14.7 69.84 15.78C70.2 15.6 70.56 15.48 70.98 15.48C71.58 15.48 77.94 18.36 77.94 21.18C77.94 22.62 76.74 24 75.48 24C74.88 24 74.34 23.76 73.8 23.16C72.54 21.78 71.1 20.34 69.84 19.5C69.9 27 70.14 31.56 70.14 31.56ZM82.74 42.12C82.02 42.12 81.36 41.82 80.76 41.1C79.32 39.18 77.28 37.8 75.66 36.84C74.88 36.36 74.52 35.7 74.52 35.1C74.52 33.84 75.84 32.58 77.4 32.58C78.42 32.58 85.68 35.88 85.68 39.12C85.68 40.74 84.24 42.12 82.74 42.12ZM93.06 44.46C93.06 51.24 89.1 52.44 79.5 52.44C69.3 52.44 67.74 50.04 67.74 45.6C67.74 45.12 67.68 42.72 67.68 40.8C67.68 38.28 67.74 35.94 70.62 35.94C72.06 35.94 73.5 36.84 73.5 38.46C73.5 39.78 73.44 44.34 73.44 45C73.56 47.46 75.6 47.58 79.62 47.58C84.96 47.58 87.3 47.22 87.3 44.34C87.3 42.78 88.56 42.12 89.88 42.12C91.44 42.12 93.06 43.02 93.06 44.46ZM56.4 51.48C54.66 51.48 53.46 49.98 53.46 48.54C53.46 47.64 53.94 46.74 55.02 46.2C56.52 45.48 59.7 42.42 60.48 40.44C60.96 39.24 61.86 38.76 62.82 38.76C64.26 38.76 65.76 39.9 65.76 41.4C65.76 43.92 60.12 51.48 56.4 51.48ZM84.96 11.34H97.02C97.02 10.68 96.96 10.02 96.96 9.41999C96.84 7.13999 96.18 7.07999 90.72 7.07999C86.22 7.07999 85.14 7.13999 85.02 9.47999C85.02 10.08 84.96 10.68 84.96 11.34ZM97.08 19.92V15.66H84.9V19.92H97.08ZM97.02 24.18H84.96C84.96 25.02 85.02 25.8 85.02 26.52C85.14 28.74 86.34 28.8 90.36 28.8C96.36 28.8 96.9 28.74 96.96 26.46C96.96 25.74 97.02 24.96 97.02 24.18ZM164.1 30.48C164.58 34.86 158.64 36.06 157.8 31.92C156.84 27.12 154.38 22.5 151.14 20.28C148.26 18.3 151.5 13.86 155.1 16.56C159.36 19.74 163.5 25.38 164.1 30.48ZM137.88 40.38C134.04 46.62 128.7 46.08 125.34 42.48C121.02 37.8 119.04 30.84 118.56 23.28C118.32 19.86 118.2 18.78 118.26 16.62C118.38 12.84 124.2 12.06 124.38 16.56C124.5 18.9 124.26 19.02 124.38 21.78C124.62 28.08 125.76 34.02 129.12 37.26C130.68 38.76 131.46 38.94 132.78 37.14C133.5 36.12 134.34 34.56 134.76 33.6C136.38 30.12 141.36 32.64 140.22 35.76C139.62 37.44 138.54 39.3 137.88 40.38ZM195.24 16.26L195.144 16.452C195.912 16.164 196.632 15.876 197.16 15.588C199.8 14.004 202.392 17.988 198.84 19.764C197.64 20.34 195.576 20.916 193.56 21.348C192.936 22.884 192.12 24.612 191.256 26.196C194.568 25.62 197.736 26.82 199.32 30.372C201.288 29.364 203.304 28.356 205.176 27.54C206.328 27.06 207.624 26.484 208.92 25.764C212.52 23.748 214.68 28.548 211.608 30.084C210.072 30.852 208.968 31.092 206.424 32.052C204.408 32.82 202.248 33.78 200.328 34.692C200.472 36.276 200.52 38.244 200.424 39.972C200.328 41.892 199.08 42.9 197.88 42.948C196.68 42.996 195.576 42.084 195.72 40.212C195.768 39.204 195.816 38.1 195.816 37.092C195.384 37.332 194.952 37.572 194.568 37.812C188.616 41.652 189.336 44.532 192.024 45.876C194.568 47.172 199.272 46.212 201.528 45.492C205.752 44.196 207.096 49.38 202.68 50.532C199.848 51.252 193.32 51.972 189.576 49.86C183.096 46.212 184.248 39.732 192.936 34.02C193.608 33.588 194.376 33.06 195.288 32.532C193.992 28.5 190.296 28.98 187.176 32.58C187.128 32.628 187.032 32.724 186.984 32.772C186.552 33.3 186.216 33.732 185.88 34.02C183.24 36.372 179.736 33.636 182.616 31.044C183.864 29.892 185.496 28.164 186.504 26.532C187.32 25.188 188.088 23.748 188.76 22.26C186.168 22.644 184.344 22.5 182.808 21.732C179.352 20.004 181.704 15.492 185.064 17.748C185.976 18.372 187.896 18.132 189.576 17.844C189.768 17.796 190.056 17.796 190.296 17.748C190.632 16.356 190.728 15.396 190.824 13.716C191.016 10.836 195.528 11.124 195.624 13.476C195.672 14.436 195.48 15.348 195.24 16.26ZM20.4 90.08C16.62 90.14 12.9 90.32 9.90001 90.44C5.10001 90.68 5.46001 85.22 9.48001 85.04C12.9 84.92 17.1 84.8 21.42 84.74C21.78 82.04 21.9 79.34 21.9 76.82C21.84 72.26 28.26 72.74 28.2 77.06C28.2 79.34 28.02 81.98 27.6 84.68C30.06 84.68 32.4 84.68 34.5 84.74C39.18 84.86 42.54 87.32 42.42 92.18C42.24 98.24 41.1 106.94 38.58 111.44C34.86 118.04 26.76 119.9 20.88 115.04C17.82 112.52 21 107.3 24.72 110.12C27.96 112.58 31.02 111.5 33.12 108.44C35.46 104.96 36.36 96.68 36.42 93.56C36.48 91.64 35.28 90.08 33.12 90.02C31.26 89.96 28.98 90.02 26.58 90.02C24.06 100.94 18.3 112.82 7.62002 118.64C3.78001 120.74 1.43349e-05 115.76 4.80001 113.18C13.02 108.74 18.06 99.62 20.4 90.08ZM91.02 103.1C85.68 109.52 78.96 114.74 68.64 118.7C63.84 120.56 61.5 114.92 66.06 113.42C74.34 110.66 81 105.5 86.1 99.74C83.94 98.42 81.72 97.4 79.8 96.86C76.44 95.96 78 90.86 82.2 92.06C84.42 92.66 87.12 93.8 89.76 95.18C91.8 92.3 93.48 89.36 94.8 86.6C95.94 84.14 95.7 83.84 94.14 83.9C91.74 83.96 85.56 84.56 83.52 84.8C79.32 90.32 73.8 96.62 69.78 99.44C65.76 102.2 62.22 96.98 66.3 94.46C72.12 90.86 80.16 80.72 82.32 75.56C84.42 70.46 90.6 74.18 88.5 77.66C88.2 78.14 87.84 78.68 87.42 79.28C90.36 79.04 93.66 78.74 96.54 78.62C102.72 78.44 103.8 82.76 101.46 87.02C99.24 91.04 97.02 94.76 94.68 98.18C96.36 99.38 97.92 100.64 99 101.96C100.38 103.58 99.96 105.5 98.88 106.52C97.8 107.54 96 107.84 94.62 106.34C93.72 105.38 92.46 104.24 91.02 103.1ZM150.48 96.56C150 104.18 145.08 115.22 132.72 119.48C126.66 121.58 125.16 114.98 129.48 113.9C139.68 111.32 143.7 102.26 144.42 96.56C137.94 96.56 131.46 96.68 126.72 96.8C123.12 96.92 122.76 91.46 126.72 91.4C131.16 91.28 137.82 91.22 144.54 91.22C144.54 88.7 144.48 86 144.48 84.02C140.1 84.74 135.9 85.1 132.72 85.04C128.28 84.92 128.46 79.22 132.84 79.52C138.96 79.94 149.94 77.66 154.86 75.62C160.02 73.46 161.16 79.64 157.86 80.78C155.7 81.56 153.18 82.22 150.6 82.82C150.66 85.16 150.66 88.34 150.6 91.22C156.9 91.22 162.42 91.28 165.24 91.34C169.44 91.4 169.32 96.86 165.12 96.74C161.82 96.62 156.42 96.56 150.48 96.56ZM213.444 93.284C209.988 92.564 206.34 92.42 202.308 93.428C199.668 94.1 198.132 89.828 201.636 88.964C205.908 87.908 210.9 87.86 214.26 88.676C217.62 89.492 216.708 94.004 213.444 93.284ZM216.036 115.172C210.9 116.468 203.028 116.324 199.572 112.58C197.604 110.42 200.484 107.012 202.98 109.268C205.572 111.62 211.332 110.852 215.076 110.084C218.964 109.268 219.204 114.356 216.036 115.172ZM190.644 117.476C189.444 118.532 187.668 118.34 186.708 115.988C182.868 106.532 186.66 92.324 187.524 86.612C188.052 83.06 192.708 84.116 192.18 86.9C191.412 90.788 188.532 102.068 189.684 106.532C189.828 107.156 190.02 107.012 190.212 106.58C190.308 106.34 190.836 105.38 191.028 105.044C192.516 102.692 195.492 104.996 194.388 106.916C192.612 110.036 191.844 112.244 191.556 113.636C191.268 114.932 191.844 116.42 190.644 117.476ZM236.628 120.452C235.956 120.452 235.284 120.116 234.804 119.396C233.604 117.62 230.964 115.412 228.9 114.356C227.988 113.876 227.604 113.156 227.604 112.436C227.604 111.332 228.468 110.324 229.86 110.324C231.54 110.324 239.22 114.548 239.22 117.812C239.22 119.348 237.924 120.452 236.628 120.452ZM97.2 143.62H76.56C74.82 143.62 73.92 142.42 73.92 141.16C73.92 139.96 74.82 138.7 76.56 138.7H97.2C98.94 138.7 99.78 139.9 99.78 141.16C99.78 142.36 98.94 143.62 97.2 143.62ZM102.6 151.84H71.58C69.78 151.84 68.88 150.58 68.88 149.32C68.88 148.06 69.78 146.8 71.58 146.8H102.6C104.4 146.8 105.24 148.06 105.24 149.32C105.24 150.58 104.4 151.84 102.6 151.84ZM97.26 159.64H76.74C75 159.64 74.1 158.38 74.1 157.18C74.1 155.92 75 154.72 76.74 154.72H97.26C99 154.72 99.84 155.92 99.84 157.18C99.84 158.38 99 159.64 97.26 159.64ZM97.26 167.38H76.74C74.94 167.38 74.04 166.12 74.04 164.92C74.04 163.66 74.94 162.46 76.74 162.46H97.26C99 162.46 99.84 163.66 99.84 164.92C99.84 166.12 99 167.38 97.26 167.38ZM101.1 183.16C101.04 185.86 98.94 187.84 95.76 187.96C92.7 188.08 89.58 188.08 86.64 188.08C83.64 188.08 80.76 188.08 78 187.96C75.12 187.84 73.32 185.86 73.26 183.22C73.2 181.9 73.2 180.76 73.2 179.62C73.2 178.12 73.2 176.68 73.26 175.18C73.32 172.9 75 170.74 78.12 170.62C80.58 170.5 83.1 170.5 85.62 170.5C89.1 170.5 92.58 170.56 95.88 170.62C98.46 170.68 100.98 172 101.1 174.88C101.16 176.26 101.16 177.64 101.16 179.08C101.16 180.46 101.16 181.84 101.1 183.16ZM60.12 186.58V186.52L60.72 158.38C56.7 163.6 55.08 164.68 53.64 164.68C52.08 164.68 50.82 163.48 50.82 162.04C50.82 161.38 51.12 160.6 51.84 159.94C57.54 154.48 62.76 146.56 65.52 138.22C66 136.9 67.02 136.3 68.1 136.3C69.72 136.3 71.46 137.56 71.46 139.24C71.46 140.38 69.06 145.36 66.6 149.56L65.88 186.52C65.88 188.32 64.38 189.22 63 189.22C61.56 189.22 60.12 188.32 60.12 186.58ZM93.48 183.22C95.16 183.1 95.34 182.5 95.34 179.26C95.34 178.48 95.34 177.64 95.28 176.8C95.22 175 94.74 175 86.76 175C84.6 175 82.5 175.06 80.7 175.12C78.84 175.18 78.78 176.02 78.78 179.08C78.78 182.5 78.9 183.1 80.7 183.22C82.74 183.28 84.78 183.34 86.94 183.34C89.04 183.34 91.26 183.28 93.48 183.22ZM164.1 143.74H155.16C154.86 145 154.5 146.44 154.14 147.58C155.46 147.58 156.78 147.64 157.98 147.7C161.64 147.88 163.74 150.16 163.86 152.8C163.98 155.62 164.04 159.22 164.04 162.76C164.04 166.3 163.98 169.78 163.86 172.48C163.68 175.84 161.22 177.52 158.22 177.88C158.46 178 158.7 178.18 158.94 178.42C160.86 180.4 162.9 181.96 165.78 182.8C167.28 183.22 167.94 184.3 167.94 185.44C167.94 186.94 166.74 188.5 164.82 188.5C162.06 188.5 154.26 182.74 154.26 180.34C154.26 179.38 154.92 178.48 155.82 178C155.1 178 154.32 178 153.6 178C151.8 178 150 178 148.32 177.94C149.4 178.42 150.24 179.44 150.24 180.58C150.24 183.46 139.92 188.8 136.98 188.8C135.06 188.8 133.98 187.54 133.98 186.16C133.98 184.96 134.82 183.7 136.68 183.22C139.86 182.38 143.16 180.64 145.2 178.54C145.56 178.18 145.92 178 146.28 177.88C142.98 177.46 141.42 175.36 141.3 172.54C141.24 169.9 141.18 166.48 141.18 162.94C141.18 159.4 141.24 155.74 141.3 152.86C141.36 150.4 142.98 147.94 147.18 147.7C147.66 147.7 148.08 147.64 148.62 147.64C148.92 146.44 149.16 145.3 149.4 143.74H141C139.2 143.74 138.3 142.48 138.3 141.22C138.3 139.96 139.2 138.7 141 138.7H164.1C165.9 138.7 166.8 139.96 166.8 141.22C166.8 142.48 165.9 143.74 164.1 143.74ZM129.78 186.64V186.7C129.78 188.32 128.46 189.1 127.08 189.1C125.76 189.1 124.44 188.32 124.44 186.7V186.64L124.62 173.86C124.2 174.46 117.84 183.16 114.84 183.16C113.34 183.16 112.08 181.9 112.08 180.46C112.08 179.62 112.5 178.78 113.52 178.12C116.7 176.02 120.84 171.94 123.9 167.38C115.98 167.38 115.86 165.28 115.86 159.22C115.86 158.08 115.86 156.94 115.92 155.92C116.1 153.46 117.72 151.54 120.84 151.42C121.98 151.36 123.3 151.36 124.56 151.36L124.5 147.1H117.12C115.44 147.1 114.54 145.9 114.54 144.7C114.54 143.56 115.44 142.36 117.12 142.36H124.5L124.44 138.64V138.58C124.44 136.84 125.76 135.94 127.08 135.94C128.46 135.94 129.78 136.84 129.78 138.58V138.64V142.36H136.56C138.24 142.36 139.02 143.56 139.02 144.7C139.02 145.9 138.24 147.1 136.56 147.1H129.72L129.66 151.36C130.86 151.36 131.94 151.36 132.96 151.42C135.84 151.54 138 153.04 138.24 155.56C138.3 156.52 138.36 157.54 138.36 158.62C138.36 164.62 138.36 167.38 129.54 167.38V170.68C130.08 170.08 130.8 169.66 131.52 169.66C133.02 169.66 137.52 172.78 138.78 173.98C139.5 174.64 139.74 175.42 139.74 176.2C139.74 177.76 138.6 179.14 137.22 179.14C136.62 179.14 136.02 178.9 135.42 178.3C133.92 176.74 131.16 174.64 129.78 173.86C129.72 173.8 129.6 173.74 129.54 173.68C129.6 181.18 129.78 186.64 129.78 186.64ZM146.34 156.16H158.7C158.7 155.38 158.64 154.66 158.64 154C158.52 151.78 158.04 151.72 152.28 151.72C147.54 151.72 146.52 151.78 146.4 154.06C146.4 154.72 146.34 155.44 146.34 156.16ZM158.76 164.86V160.42H146.28C146.28 161.86 146.34 163.42 146.34 164.86H158.76ZM158.76 169.06H146.34C146.34 169.96 146.4 170.86 146.4 171.64C146.46 173.44 147 173.92 151.86 173.92C157.8 173.92 158.58 173.86 158.64 171.58C158.64 170.8 158.76 169.96 158.76 169.06ZM129.6 155.68L129.54 163.06C133.32 163.06 133.56 162.76 133.56 159.28C133.56 155.8 133.32 155.68 129.6 155.68ZM124.68 163.06L124.62 155.68C123.9 155.68 123.24 155.74 122.64 155.74C121.26 155.8 120.72 156.22 120.72 159.46C120.72 162.76 120.9 163.06 124.68 163.06ZM195.24 152.26L195.144 152.452C195.912 152.164 196.632 151.876 197.16 151.588C199.8 150.004 202.392 153.988 198.84 155.764C197.64 156.34 195.576 156.916 193.56 157.348C192.936 158.884 192.12 160.612 191.256 162.196C194.568 161.62 197.736 162.82 199.32 166.372C201.288 165.364 203.304 164.356 205.176 163.54C206.328 163.06 207.624 162.484 208.92 161.764C212.52 159.748 214.68 164.548 211.608 166.084C210.072 166.852 208.968 167.092 206.424 168.052C204.408 168.82 202.248 169.78 200.328 170.692C200.472 172.276 200.52 174.244 200.424 175.972C200.328 177.892 199.08 178.9 197.88 178.948C196.68 178.996 195.576 178.084 195.72 176.212C195.768 175.204 195.816 174.1 195.816 173.092C195.384 173.332 194.952 173.572 194.568 173.812C188.616 177.652 189.336 180.532 192.024 181.876C194.568 183.172 199.272 182.212 201.528 181.492C205.752 180.196 207.096 185.38 202.68 186.532C199.848 187.252 193.32 187.972 189.576 185.86C183.096 182.212 184.248 175.732 192.936 170.02C193.608 169.588 194.376 169.06 195.288 168.532C193.992 164.5 190.296 164.98 187.176 168.58C187.128 168.628 187.032 168.724 186.984 168.772C186.552 169.3 186.216 169.732 185.88 170.02C183.24 172.372 179.736 169.636 182.616 167.044C183.864 165.892 185.496 164.164 186.504 162.532C187.32 161.188 188.088 159.748 188.76 158.26C186.168 158.644 184.344 158.5 182.808 157.732C179.352 156.004 181.704 151.492 185.064 153.748C185.976 154.372 187.896 154.132 189.576 153.844C189.768 153.796 190.056 153.796 190.296 153.748C190.632 152.356 190.728 151.396 190.824 149.716C191.016 146.836 195.528 147.124 195.624 149.476C195.672 150.436 195.48 151.348 195.24 152.26ZM19.704 222.148C18.36 222.788 16.568 222.596 15.736 220.868C15.032 219.332 13.56 217.22 11.768 216.132C8.63201 214.212 12.344 209.668 15.864 211.972C18.296 213.572 20.28 215.172 21.496 217.988C22.264 219.78 21.048 221.508 19.704 222.148ZM33.976 260.548C19.384 259.076 15.544 245.508 20.984 237.508C21.88 236.164 22.072 235.908 20.728 236.356C18.552 237.124 15.032 238.596 13.944 239.236C12.472 240.132 9.78401 240.836 8.37601 239.94C5.36801 238.084 6.13601 234.82 9.08001 233.924C10.296 233.54 15.096 232.708 16.44 231.556C21.688 226.948 27.448 217.028 31.224 211.14C34.296 206.404 40.12 211.012 37.24 214.724C32.952 220.228 28.088 226.692 24.248 229.956C23.544 230.596 24.44 230.34 24.696 230.212C25.08 230.02 25.848 229.764 26.808 229.508C30.968 228.356 36.6 226.884 41.016 226.884C44.344 226.884 45.176 229.7 44.28 231.556C43.704 232.772 42.104 233.732 38.904 233.348C36.792 233.092 33.016 233.668 31.48 233.988C28.216 234.756 27.576 235.716 25.848 238.34C21.368 245.124 25.336 253.892 34.872 253.252C41.016 252.868 41.016 261.252 33.976 260.548ZM90.28 223.24C90.94 223.84 91.3 224.8 91.12 226C90.16 233.62 84.76 244.96 79 250.3C74.38 254.56 69.34 252.22 66.7 247.06C62.92 239.62 66.94 228.46 74.98 222.88C82.36 217.78 93.34 216.94 100.9 221.5C110.2 227.08 111.7 238.12 106.48 246.7C103.66 251.32 97.78 255.04 91.84 256.6C86.56 257.98 84.7 251.92 89.86 250.72C94.42 249.7 99.04 247.12 101.02 244C105.28 237.28 103.66 229.42 97.72 225.64C95.38 224.14 92.86 223.42 90.28 223.24ZM85.54 223.54C82.78 224.14 80.08 225.4 77.8 227.14C72.22 231.46 69.22 239.44 71.74 244.06C72.64 245.8 74.2 246.7 75.7 245.38C80.2 241.42 84.4 231.88 85 225.4C85.06 224.68 85.24 224.02 85.54 223.54ZM171.22 243.1L154.66 242.98C154.6 245.14 154.36 247.36 154.06 249.64C153.16 255.76 148.6 260.68 141.34 260.68C137.44 260.68 133.72 259.78 133.72 256.72C133.72 255.22 134.74 253.78 136.42 253.78C136.72 253.78 137.08 253.84 137.44 253.96C138.82 254.38 140.14 254.62 141.4 254.62C147.88 254.62 148.24 248.68 148.6 242.98L124.96 243.1C122.92 243.1 122.02 241.78 122.02 240.46C122.02 238.96 123.1 237.46 124.96 237.46L148.6 237.58C148.48 235.3 148.24 233.02 147.88 230.86L128.86 230.98C126.82 230.98 125.92 229.66 125.92 228.34C125.92 226.84 127 225.34 128.86 225.34L146.5 225.46C145.48 222.46 144.1 220.06 142.42 218.62C137.74 218.98 133.36 219.16 130.24 219.16C128.26 219.16 127.24 217.72 127.24 216.34C127.24 214.96 128.2 213.64 130.12 213.64H130.18C131.02 213.64 131.92 213.7 132.82 213.7C142.06 213.7 152.44 212.56 160.9 210.46C161.2 210.4 161.5 210.34 161.8 210.34C163.6 210.34 164.56 211.9 164.56 213.4C164.56 214.54 163.96 215.62 162.76 215.92C159.4 216.7 154.42 217.48 149.2 218.02C150.52 219.82 151.78 222.34 152.68 225.46L167.32 225.34C169.18 225.34 170.14 226.78 170.14 228.22C170.14 229.6 169.24 230.98 167.32 230.98L153.94 230.86C154.3 232.96 154.48 235.24 154.6 237.58L171.22 237.46C173.08 237.46 174.04 238.9 174.04 240.34C174.04 241.72 173.14 243.1 171.22 243.1ZM215.464 233.284C212.008 232.564 208.36 232.42 204.328 233.428C201.688 234.1 200.152 229.828 203.656 228.964C207.928 227.908 212.92 227.86 216.28 228.676C219.64 229.492 218.728 234.004 215.464 233.284ZM218.056 255.172C212.92 256.468 205.048 256.324 201.592 252.58C199.624 250.42 202.504 247.012 205 249.268C207.592 251.62 213.352 250.852 217.096 250.084C220.984 249.268 221.224 254.356 218.056 255.172ZM192.664 257.476C191.464 258.532 189.688 258.34 188.728 255.988C184.888 246.532 188.68 232.324 189.544 226.612C190.072 223.06 194.728 224.116 194.2 226.9C193.432 230.788 190.552 242.068 191.704 246.532C191.848 247.156 192.04 247.012 192.232 246.58C192.328 246.34 192.856 245.38 193.048 245.044C194.536 242.692 197.512 244.996 196.408 246.916C194.632 250.036 193.864 252.244 193.576 253.636C193.288 254.932 193.864 256.42 192.664 257.476ZM240.52 254.98C240.52 258.004 238.072 260.452 235.048 260.452C232.024 260.452 229.576 258.004 229.576 254.98C229.576 251.956 232.024 249.508 235.048 249.508C238.072 249.508 240.52 251.956 240.52 254.98ZM238.696 254.98C238.696 252.964 237.064 251.38 235.048 251.38C233.032 251.38 231.4 252.964 231.4 254.98C231.4 256.996 233.032 258.628 235.048 258.628C237.064 258.628 238.696 256.996 238.696 254.98Z" fill="black" fill-opacity="0.8"/>
</svg>
